<?xml version="1.0" encoding="UTF-8"?>
<!DOCTYPE svg PUBLIC "-//W3C//DTD SVG 1.1//EN" "http://www.w3.org/Graphics/SVG/1.1/DTD/svg11.dtd">
<svg xmlns="http://www.w3.org/2000/svg">
    <symbol id="search" viewBox="0 0 56 55" fill="none">
        <path d="M34.4286 24.9286C34.4286 29.8906 30.3906 33.9286 25.4286 33.9286C20.4665 33.9286 16.4286 29.8906 16.4286 24.9286C16.4286 19.9665 20.4665 15.9286 25.4286 15.9286C30.3906 15.9286 34.4286 19.9665 34.4286 24.9286ZM44.7143 41.6429C44.7143 40.9598 44.433 40.2969 43.971 39.8348L37.0803 32.9442C38.7076 30.5937 39.5714 27.7812 39.5714 24.9286C39.5714 17.1138 33.2433 10.7857 25.4286 10.7857C17.6138 10.7857 11.2857 17.1138 11.2857 24.9286C11.2857 32.7433 17.6138 39.0714 25.4286 39.0714C28.2812 39.0714 31.0937 38.2076 33.4442 36.5803L40.3348 43.4509C40.7969 43.933 41.4598 44.2143 42.1429 44.2143C43.5491 44.2143 44.7143 43.0491 44.7143 41.6429Z" fill="white"/>
    </symbol>

    <symbol id="percent" viewBox="0 0 56 55" fill="none">
        <path d="M38.2857 35.2143C38.2857 36.6205 37.1205 37.7857 35.7143 37.7857C34.308 37.7857 33.1429 36.6205 33.1429 35.2143C33.1429 33.808 34.308 32.6428 35.7143 32.6428C37.1205 32.6428 38.2857 33.808 38.2857 35.2143ZM22.8571 19.7857C22.8571 21.1919 21.692 22.3571 20.2857 22.3571C18.8795 22.3571 17.7143 21.1919 17.7143 19.7857C17.7143 18.3794 18.8795 17.2143 20.2857 17.2143C21.692 17.2143 22.8571 18.3794 22.8571 19.7857ZM43.4286 35.2143C43.4286 30.9553 39.9732 27.5 35.7143 27.5C31.4554 27.5 28 30.9553 28 35.2143C28 39.4732 31.4554 42.9286 35.7143 42.9286C39.9732 42.9286 43.4286 39.4732 43.4286 35.2143ZM41.5 13.3571C41.5 12.654 40.9174 12.0714 40.2143 12.0714H37C36.5982 12.0714 36.2165 12.2723 35.9754 12.5937L14.7612 40.8794C14.6004 41.1004 14.5 41.3616 14.5 41.6428C14.5 42.346 15.0826 42.9286 15.7857 42.9286H19C19.4018 42.9286 19.7835 42.7277 20.0246 42.4062L41.2388 14.1205C41.3996 13.8995 41.5 13.6384 41.5 13.3571ZM28 19.7857C28 15.5268 24.5446 12.0714 20.2857 12.0714C16.0268 12.0714 12.5714 15.5268 12.5714 19.7857C12.5714 24.0446 16.0268 27.5 20.2857 27.5C24.5446 27.5 28 24.0446 28 19.7857Z" fill="white"/>
    </symbol>

    <symbol id="file" viewBox="0 0 56 55" fill="none">
        <path d="M24.4932 29.1224V27.8367C24.4932 27.4751 24.7745 27.1939 25.1361 27.1939H39.2789C39.6405 27.1939 39.9218 27.4751 39.9218 27.8367V29.1224C39.9218 29.484 39.6405 29.7653 39.2789 29.7653H25.1361C24.7745 29.7653 24.4932 29.484 24.4932 29.1224Z" fill="white"/>
        <path d="M25.1361 32.3367H39.2789C39.6405 32.3367 39.9218 32.618 39.9218 32.9796V34.2653C39.9218 34.6269 39.6405 34.9081 39.2789 34.9081H25.1361C24.7745 34.9081 24.4932 34.6269 24.4932 34.2653V32.9796C24.4932 32.618 24.7745 32.3367 25.1361 32.3367Z" fill="white"/>
        <path d="M25.1361 37.4796H39.2789C39.6405 37.4796 39.9218 37.7608 39.9218 38.1224V39.4081C39.9218 39.7698 39.6405 40.051 39.2789 40.051H25.1361C24.7745 40.051 24.4932 39.7698 24.4932 39.4081V38.1224C24.4932 37.7608 24.7745 37.4796 25.1361 37.4796Z" fill="white"/>
        <path fill-rule="evenodd" clip-rule="evenodd" d="M16.7789 21.0648C12.6837 21.0648 9.36392 17.745 9.36392 13.6498C9.36392 9.55461 12.6837 6.2348 16.7789 6.2348C20.2229 6.2348 23.1185 8.58277 23.9523 11.7653H36.7075C37.7722 11.7653 39.2588 12.3881 40.0021 13.1314L46.27 19.3992C47.0133 20.1425 47.6361 21.6291 47.6361 22.6939V45.8367C47.6361 46.9015 46.7722 47.7653 45.7075 47.7653H18.7075C17.6428 47.7653 16.7789 46.9015 16.7789 45.8367L16.7789 21.0648ZM19.3504 20.6068C21.9729 19.6371 23.897 17.227 24.1625 14.3367H34.7789V22.6939C34.7789 23.7586 35.6428 24.6224 36.7075 24.6224H45.0646V45.1939H19.3504V20.6068ZM38.174 14.9394C38.0334 14.7988 37.6919 14.618 37.3504 14.4974V22.051H44.9039C44.7834 21.7095 44.6026 21.368 44.462 21.2273L38.174 14.9394ZM17.7789 14.6498H21.7789V12.6498H17.7789V8.64984H15.7789V12.6498H11.7789V14.6498H15.7789V18.6498H17.7789V14.6498Z" fill="white"/>
    </symbol>

    <symbol id="message" viewBox="0 0 56 55" fill="none">
        <path d="M44.9286 38.8571C44.9286 39.1987 44.6272 39.5 44.2857 39.5H14.7143C14.3728 39.5 14.0714 39.1987 14.0714 38.8571V23.4286C14.4933 23.9107 14.9554 24.3527 15.4576 24.7545C18.3304 26.9643 21.2232 29.2143 24.0156 31.5446C25.5223 32.8103 27.3906 34.3571 29.4799 34.3571H29.5H29.5201C31.6094 34.3571 33.4777 32.8103 34.9844 31.5446C37.7768 29.2143 40.6696 26.9643 43.5424 24.7545C44.0446 24.3527 44.5067 23.9107 44.9286 23.4286V38.8571ZM44.9286 17.7433C44.9286 19.4509 43.2813 21.6808 41.9754 22.7053C39.2835 24.8147 36.5915 26.9442 33.9196 29.0737C32.8549 29.9375 30.9263 31.7857 29.5201 31.7857H29.5H29.4799C28.0737 31.7857 26.1451 29.9375 25.0804 29.0737C22.4085 26.9442 19.7165 24.8147 17.0246 22.7053C15.2165 21.279 14.0714 19.2902 14.0714 17C14.0714 16.6585 14.3728 16.3571 14.7143 16.3571H44.2857C45.0491 16.3571 44.9286 17.2411 44.9286 17.7433ZM47.5 17C47.5 15.2321 46.0536 13.7857 44.2857 13.7857H14.7143C12.9464 13.7857 11.5 15.2321 11.5 17V38.8571C11.5 40.625 12.9464 42.0714 14.7143 42.0714H44.2857C46.0536 42.0714 47.5 40.625 47.5 38.8571V17Z" fill="white"/>
    </symbol>

    <symbol id="money" viewBox="0 0 56 55" fill="none">
        <path d="M24.4286 31.7857V29.8571H27V24.0714H26.9598C26.6384 24.5737 26.3371 24.7946 25.8549 25.2165L24.308 23.6094L27.2812 20.8571H29.5714V29.8571H32.1429V31.7857H24.4286ZM34.7143 26.6428C34.7143 22.9866 32.5045 18.2857 28.2857 18.2857C24.067 18.2857 21.8571 22.9866 21.8571 26.6428C21.8571 30.2991 24.067 35 28.2857 35C32.5045 35 34.7143 30.2991 34.7143 26.6428ZM45 31.7857C42.1674 31.7857 39.8571 34.096 39.8571 36.9286H16.7143C16.7143 34.096 14.404 31.7857 11.5714 31.7857V21.5C14.404 21.5 16.7143 19.1897 16.7143 16.3571H39.8571C39.8571 19.1897 42.1674 21.5 45 21.5V31.7857ZM47.5714 15.0714C47.5714 14.3683 46.9888 13.7857 46.2857 13.7857H10.2857C9.58259 13.7857 9 14.3683 9 15.0714V38.2143C9 38.9174 9.58259 39.5 10.2857 39.5H46.2857C46.9888 39.5 47.5714 38.9174 47.5714 38.2143V15.0714Z" fill="white"/>
    </symbol>
</svg>
